<mxfile host="Electron" modified="2024-04-30T02:07:53.734Z" agent="Mozilla/5.0 (X11; Linux x86_64) AppleWebKit/537.36 (KHTML, like Gecko) draw.io/23.0.2 Chrome/120.0.6099.109 Electron/28.1.0 Safari/537.36" etag="N0WkCHgrnxdFFSgDRXUM" version="23.0.2" type="device">
  <diagram name="Page-1" id="9ejCxTXZl1t5eMBuFMop">
    <mxGraphModel dx="1366" dy="830" grid="1" gridSize="10" guides="1" tooltips="1" connect="1" arrows="1" fold="1" page="1" pageScale="1" pageWidth="850" pageHeight="1100" math="0" shadow="0">
      <root>
        <mxCell id="0" />
        <mxCell id="1" parent="0" />
        <mxCell id="EW4l61SUZ_ST0BixbFRw-3" style="edgeStyle=orthogonalEdgeStyle;rounded=0;orthogonalLoop=1;jettySize=auto;html=1;" edge="1" parent="1" source="EW4l61SUZ_ST0BixbFRw-1" target="EW4l61SUZ_ST0BixbFRw-2">
          <mxGeometry relative="1" as="geometry" />
        </mxCell>
        <mxCell id="EW4l61SUZ_ST0BixbFRw-1" value="User" style="shape=umlActor;verticalLabelPosition=bottom;verticalAlign=top;html=1;outlineConnect=0;" vertex="1" parent="1">
          <mxGeometry x="103" y="630" width="30" height="60" as="geometry" />
        </mxCell>
        <mxCell id="EW4l61SUZ_ST0BixbFRw-6" style="edgeStyle=orthogonalEdgeStyle;rounded=0;orthogonalLoop=1;jettySize=auto;html=1;" edge="1" parent="1" source="EW4l61SUZ_ST0BixbFRw-2" target="EW4l61SUZ_ST0BixbFRw-4">
          <mxGeometry relative="1" as="geometry" />
        </mxCell>
        <mxCell id="EW4l61SUZ_ST0BixbFRw-2" value="Web page" style="rounded=0;whiteSpace=wrap;html=1;" vertex="1" parent="1">
          <mxGeometry x="263" y="630" width="120" height="60" as="geometry" />
        </mxCell>
        <mxCell id="EW4l61SUZ_ST0BixbFRw-7" style="edgeStyle=orthogonalEdgeStyle;rounded=0;orthogonalLoop=1;jettySize=auto;html=1;" edge="1" parent="1" source="EW4l61SUZ_ST0BixbFRw-4" target="EW4l61SUZ_ST0BixbFRw-5">
          <mxGeometry relative="1" as="geometry" />
        </mxCell>
        <mxCell id="EW4l61SUZ_ST0BixbFRw-13" style="edgeStyle=orthogonalEdgeStyle;rounded=0;orthogonalLoop=1;jettySize=auto;html=1;" edge="1" parent="1" source="EW4l61SUZ_ST0BixbFRw-4" target="EW4l61SUZ_ST0BixbFRw-12">
          <mxGeometry relative="1" as="geometry" />
        </mxCell>
        <mxCell id="EW4l61SUZ_ST0BixbFRw-4" value="Luiquidity contract" style="rounded=0;whiteSpace=wrap;html=1;" vertex="1" parent="1">
          <mxGeometry x="513" y="630" width="120" height="60" as="geometry" />
        </mxCell>
        <mxCell id="EW4l61SUZ_ST0BixbFRw-8" style="edgeStyle=orthogonalEdgeStyle;rounded=0;orthogonalLoop=1;jettySize=auto;html=1;" edge="1" parent="1" source="EW4l61SUZ_ST0BixbFRw-5" target="EW4l61SUZ_ST0BixbFRw-1">
          <mxGeometry relative="1" as="geometry">
            <Array as="points">
              <mxPoint x="73" y="810" />
              <mxPoint x="73" y="660" />
            </Array>
          </mxGeometry>
        </mxCell>
        <mxCell id="EW4l61SUZ_ST0BixbFRw-5" value="FT contract" style="rounded=0;whiteSpace=wrap;html=1;" vertex="1" parent="1">
          <mxGeometry x="513" y="780" width="120" height="60" as="geometry" />
        </mxCell>
        <mxCell id="EW4l61SUZ_ST0BixbFRw-9" value="stake" style="text;html=1;align=center;verticalAlign=middle;resizable=0;points=[];autosize=1;strokeColor=none;fillColor=none;" vertex="1" parent="1">
          <mxGeometry x="168" y="660" width="50" height="30" as="geometry" />
        </mxCell>
        <mxCell id="EW4l61SUZ_ST0BixbFRw-10" value="mint 1:1 gVARA" style="text;html=1;align=center;verticalAlign=middle;resizable=0;points=[];autosize=1;strokeColor=none;fillColor=none;" vertex="1" parent="1">
          <mxGeometry x="568" y="720" width="110" height="30" as="geometry" />
        </mxCell>
        <mxCell id="EW4l61SUZ_ST0BixbFRw-11" value="transfer gVARA to user" style="text;html=1;align=center;verticalAlign=middle;resizable=0;points=[];autosize=1;strokeColor=none;fillColor=none;" vertex="1" parent="1">
          <mxGeometry x="248" y="780" width="150" height="30" as="geometry" />
        </mxCell>
        <mxCell id="EW4l61SUZ_ST0BixbFRw-16" style="edgeStyle=orthogonalEdgeStyle;rounded=0;orthogonalLoop=1;jettySize=auto;html=1;" edge="1" parent="1" source="EW4l61SUZ_ST0BixbFRw-12" target="EW4l61SUZ_ST0BixbFRw-15">
          <mxGeometry relative="1" as="geometry" />
        </mxCell>
        <mxCell id="EW4l61SUZ_ST0BixbFRw-12" value="off-chain server" style="rounded=0;whiteSpace=wrap;html=1;" vertex="1" parent="1">
          <mxGeometry x="513" y="460" width="120" height="60" as="geometry" />
        </mxCell>
        <mxCell id="EW4l61SUZ_ST0BixbFRw-14" value="send VARA" style="text;html=1;align=center;verticalAlign=middle;resizable=0;points=[];autosize=1;strokeColor=none;fillColor=none;" vertex="1" parent="1">
          <mxGeometry x="578" y="568" width="80" height="30" as="geometry" />
        </mxCell>
        <mxCell id="EW4l61SUZ_ST0BixbFRw-15" value="stakin pallet" style="rounded=0;whiteSpace=wrap;html=1;" vertex="1" parent="1">
          <mxGeometry x="513" y="260" width="120" height="60" as="geometry" />
        </mxCell>
        <mxCell id="EW4l61SUZ_ST0BixbFRw-17" value="stake VARA" style="text;html=1;align=center;verticalAlign=middle;resizable=0;points=[];autosize=1;strokeColor=none;fillColor=none;" vertex="1" parent="1">
          <mxGeometry x="573" y="380" width="90" height="30" as="geometry" />
        </mxCell>
        <mxCell id="EW4l61SUZ_ST0BixbFRw-18" value="send VARA" style="text;html=1;align=center;verticalAlign=middle;resizable=0;points=[];autosize=1;strokeColor=none;fillColor=none;" vertex="1" parent="1">
          <mxGeometry x="408" y="660" width="80" height="30" as="geometry" />
        </mxCell>
        <mxCell id="EW4l61SUZ_ST0BixbFRw-19" value="store transaction&lt;br&gt;store user stake info&lt;br&gt;store user locked balance" style="text;html=1;align=left;verticalAlign=middle;resizable=0;points=[];autosize=1;strokeColor=none;fillColor=none;" vertex="1" parent="1">
          <mxGeometry x="640" y="630" width="160" height="60" as="geometry" />
        </mxCell>
        <mxCell id="EW4l61SUZ_ST0BixbFRw-21" value="staking action" style="text;html=1;align=center;verticalAlign=middle;resizable=0;points=[];autosize=1;strokeColor=none;fillColor=none;" vertex="1" parent="1">
          <mxGeometry x="398" y="630" width="100" height="30" as="geometry" />
        </mxCell>
      </root>
    </mxGraphModel>
  </diagram>
</mxfile>
